<svg width="156" height="238" viewBox="0 0 156 238" fill="none" xmlns="http://www.w3.org/2000/svg">
<path fill-rule="evenodd" clip-rule="evenodd" d="M38.87 60.156C17.767 93.245 0.369999 120.84 0.210999 121.479C0.0519985 122.118 17.465 132.619 38.906 144.814L77.891 166.988L116.695 144.901C138.038 132.753 155.669 122.649 155.875 122.446C156.373 121.958 78.683 0.00500025 77.87 2.4932e-07C77.524 -0.00299975 59.974 27.068 38.87 60.156ZM113.008 63.696C130.482 91.086 144.618 113.669 144.42 113.881C144.223 114.093 129.647 107.851 112.031 100.009L80 85.75V49.206C80 29.107 80.278 12.94 80.618 13.28C80.958 13.62 95.533 36.307 113.008 63.696ZM74.263 86.061C73.843 86.442 60 92.717 43.5 100.006C27 107.295 12.6 113.723 11.5 114.291C9.847 115.144 9.687 115.077 10.579 113.909C11.172 113.131 25.797 90.258 43.079 63.079L74.5 13.663L74.763 49.516C74.907 69.236 74.682 85.681 74.263 86.061ZM118.204 138.261C101.867 147.543 86.588 156.249 84.25 157.608L80 160.079V125.643V91.206L113.954 106.295L147.908 121.385L118.204 138.261ZM75 125.495C75 143.92 74.731 158.995 74.402 158.995C73.496 158.995 7.989 121.673 8.318 121.344C8.836 120.826 73.482 92.101 74.25 92.047C74.662 92.018 75 107.07 75 125.495ZM0 134.422C0 134.834 74.011 233.515 77.55 237.821C77.697 238 95.385 214.839 116.857 186.352C138.329 157.866 155.715 134.377 155.493 134.155C155.271 133.933 138.025 143.688 117.168 155.832C96.31 167.977 78.835 178.044 78.333 178.204C77.831 178.364 60.399 168.595 39.595 156.495C0.0660019 133.504 0 133.467 0 134.422ZM74.164 182.759C74.647 183.242 74.92 193.011 74.771 204.468L74.5 225.299L45.788 187.256L17.075 149.213L45.181 165.547C60.639 174.531 73.681 182.276 74.164 182.759ZM110.354 186.745C95.144 206.958 82.092 224.154 81.35 224.959C80.213 226.192 80 223.015 80 204.851V183.279L108.25 166.74C123.787 157.643 136.839 150.154 137.254 150.098C137.669 150.041 125.564 166.532 110.354 186.745Z" fill="black"/>
<path d="M80.5 13L111 60.5L138 103L144.5 114L79.5 86L80.5 13Z" fill="#EB9999" stroke="black"/>
<path d="M74.5 13.5V86.5L9.5 115L74.5 13.5Z" fill="#B2B795" stroke="black"/>
<path d="M137.5 150L80 183L80.5 226L137.5 150Z" fill="#4B8F73"/>
<path d="M17 149L74.5 183V226L17 149Z" fill="#4B678F"/>
<path d="M137.5 150L80 183L80.5 226L137.5 150Z" stroke="#121111"/>
<path d="M17 149L74.5 183V226L17 149Z" stroke="#121111"/>
</svg>
